HIERARCHY
ROOT Hips
{
     OFFSET 1.88212 96.90440 -13.34250
     CHANNELS 6 Xposition Yposition Zposition Zrotation Xrotation Yrotation
     JOINT Spine
     {
          OFFSET 0.00000 11.89050 0.00000
          CHANNELS 3 Zrotation Xrotation Yrotation
          JOINT Spine1
          {
               OFFSET -0.00000 25.65740 0.12766
               CHANNELS 3 Zrotation Xrotation Yrotation
               JOINT HEad
               {
                    OFFSET 0.00000 8.73416 0.01134
                    CHANNELS 3 Zrotation Xrotation Yrotation
                    End Site
                    {
                         OFFSET -0.29000 12.77420 2.51395
                    }
               }
               JOINT LeftShoulder1
               {
                    OFFSET 8.99000 -0.36225 -0.22000
                    CHANNELS 3 Zrotation Xrotation Yrotation
                    JOINT LeftArm
                    {
                         OFFSET 10.28270 -0.00338 0.32212
                         CHANNELS 3 Zrotation Xrotation Yrotation
                         JOINT LeftForeArm
                         {
                              OFFSET 32.76690 0.09914 -1.42434
                              CHANNELS 3 Zrotation Xrotation Yrotation
                              JOINT LeftHand
                              {
                                   OFFSET 27.56430 0.08536 1.02216
                                   CHANNELS 3 Zrotation Xrotation Yrotation
                                   End Site
                                   {
                                        OFFSET 16.74430 -0.60000 1.50291
                                   }
                              }
                         }
                    }
               }
               JOINT RightShoulder
               {
                    OFFSET -8.99000 -0.36225 -0.22000
                    CHANNELS 3 Zrotation Xrotation Yrotation
                    JOINT RightArm
                    {
                         OFFSET -10.28270 -0.00338 0.32212
                         CHANNELS 3 Zrotation Xrotation Yrotation
                         JOINT RightForeArm
                         {
                              OFFSET -32.89710 0.09914 -1.42434
                              CHANNELS 3 Zrotation Xrotation Yrotation
                              JOINT RightHand
                              {
                                   OFFSET -27.49210 0.08536 1.02216
                                   CHANNELS 3 Zrotation Xrotation Yrotation
                                   End Site
                                   {
                                        OFFSET -16.63120 -0.60000 1.50291
                                   }
                              }
                         }
                    }
               }
          }
     }
     JOINT LeftUpLeg
     {
          OFFSET 8.94580 -8.66707 0.10165
          CHANNELS 3 Zrotation Xrotation Yrotation
          JOINT LeftLeg
          {
               OFFSET 0.00000 -44.42270 1.37270
               CHANNELS 3 Zrotation Xrotation Yrotation
               JOINT LeftFoot
               {
                    OFFSET -0.25355 -42.09240 -1.46059
                    CHANNELS 3 Zrotation Xrotation Yrotation
                    JOINT LeftToes
                    {
                         OFFSET -0.04000 -4.41509 8.49910
                         CHANNELS 3 Zrotation Xrotation Yrotation
                         End Site
                         {
                              OFFSET 0.08000 -0.04745 9.77979
                         }
                    }
               }
          }
     }
     JOINT RightUpLeg
     {
          OFFSET -8.94580 -8.66707 0.10165
          CHANNELS 3 Zrotation Xrotation Yrotation
          JOINT RightLeg
          {
               OFFSET 0.00000 -44.42270 1.37270
               CHANNELS 3 Zrotation Xrotation Yrotation
               JOINT RightFoot
               {
                    OFFSET 0.25355 -42.09240 -1.46059
                    CHANNELS 3 Zrotation Xrotation Yrotation
                    JOINT RightToes
                    {
                         OFFSET 0.04000 -4.41509 8.49910
                         CHANNELS 3 Zrotation Xrotation Yrotation
                         End Site
                         {
                              OFFSET -0.08000 -0.13745 9.77979
                         }
                    }
               }
          }
     }
}
MOTION
Frames: 8
Frame Time: 0.01667
44.14614 83.29543 -121.27788 0.97967 -9.19753 -29.07064 -8.90580 30.19747 4.62710 -0.04194 0.09999 0.01855 -17.17289 8.35498 18.90726 -21.04936 35.00522 9.04740 -107.14050 -61.11774 -80.74277 -40.67830 55.40038 -94.12476 0.94426 4.00237 5.59092 -16.29252 39.76545 13.16108 79.99003 -25.50810 81.20694 29.68129 46.27359 100.47490 -4.30607 3.06069 -8.57164 8.73857 -21.76763 17.31034 33.49300 28.37295 -21.27126 -27.07288 -0.13804 0.01996 -3.24646 -5.28016 -0.63795 -21.23567 -25.11514 -13.05106 -17.06989 48.71629 36.20208 24.41039 0.03182 0.11765 -21.32269 -26.08428 -3.57282 
44.47335 80.29138 -121.79155 0.80279 -8.15371 -27.23818 -10.09635 34.32306 3.86958 -0.03997 0.08805 0.01820 -18.55760 6.41271 19.70393 -19.76253 31.46243 7.92391 -103.92768 -60.13820 -75.85269 -37.69444 55.15100 -96.74625 7.21581 1.75838 2.04571 -13.43640 35.91528 12.53811 74.24887 -24.14546 74.68025 24.91354 43.87474 105.55542 -3.63122 2.18716 -4.60937 10.21958 -27.20467 15.63759 35.91400 34.37849 -21.38432 -23.81797 -0.11621 0.02769 -3.37542 -22.75188 3.48241 -22.13596 -30.14677 -14.39271 -24.85376 56.74153 42.19865 28.99913 0.07678 0.18291 -25.93035 -32.07502 -3.08220 
44.92668 76.32683 -122.52545 1.04469 -6.60519 -23.49437 -10.50518 38.67657 1.43382 -0.04217 0.07352 0.01632 -20.50193 4.07779 20.55720 -18.31788 27.44062 6.84725 -101.59139 -59.27422 -73.29229 -35.73560 54.96496 -98.52386 1.76224 6.90037 1.19829 -10.20863 31.67940 11.89608 70.77209 -22.84713 70.91856 22.06852 42.19388 108.21528 -4.02544 5.38653 -2.82509 10.69614 -34.98405 12.22729 39.06330 41.07480 -23.38792 -20.67053 -0.09755 0.02630 -10.75618 -16.24434 -4.57379 -24.84889 -36.00876 -17.42631 -35.04179 65.16244 50.69709 33.58185 0.09273 0.14875 -31.04791 -37.37987 -3.05025 
45.38767 72.07299 -123.44780 1.23559 -5.38631 -20.10962 -11.83734 43.47258 0.66785 -0.04069 0.06346 0.01277 -21.36904 1.53884 20.25619 -16.15147 23.39815 5.44399 -99.92792 -58.48923 -72.16599 -34.53794 54.76313 -99.80483 5.61280 5.09178 -1.12188 -5.94870 27.42247 10.51510 68.36684 -21.62311 68.89855 20.28293 41.28385 109.81076 -3.46274 4.84306 -0.62152 10.99695 -43.75479 9.34966 44.56372 48.41145 -28.65655 -18.06402 -0.06943 0.02914 -15.18588 -20.57016 -5.90720 -28.41726 -42.21791 -19.68004 -53.40380 73.36425 67.50913 38.36880 0.10205 0.13914 -36.28046 -42.19738 -3.41765 
45.79434 67.64180 -124.53607 1.42041 -4.44090 -17.02913 -14.32364 48.46728 1.68009 -0.04317 0.05334 0.00789 -21.32616 -1.01758 19.09388 -13.37944 19.32167 3.85839 -98.62939 -57.80732 -71.73531 -33.75679 54.72035 -101.03562 2.90545 8.24195 -1.07144 -1.46477 23.07343 9.11955 66.96093 -20.68893 67.85590 19.15122 41.01969 111.07705 -3.89548 6.54186 0.26821 11.29883 -53.16770 7.18236 53.07303 55.73720 -38.06662 -15.51190 -0.05332 0.03518 -19.49222 -19.59816 -9.75032 -32.85102 -48.28368 -21.28262 -91.17622 78.58779 104.07098 43.49634 0.11313 0.12285 -41.55254 -46.45483 -3.86492 
46.09135 62.86818 -125.67561 1.62721 -3.72756 -14.18098 -18.33648 53.37165 4.83707 -0.04757 0.04255 0.01216 -20.52333 -3.44629 17.21593 -10.26338 15.28035 2.41868 -97.30668 -56.85134 -71.50708 -33.26905 54.60761 -102.20597 5.74379 6.94649 -2.04659 2.87027 18.74914 8.07304 66.40675 -20.19543 67.48438 21.25394 45.48743 112.28947 -6.47622 9.35779 -0.49612 12.26878 -62.72686 6.35712 65.44431 61.96482 -52.49224 -12.70628 -0.04363 0.04033 -23.59422 -21.25830 -11.74088 -37.99953 -53.77442 -22.24748 -137.38638 77.05823 149.54942 49.13036 0.12344 0.10285 -47.28791 -49.93438 -5.60636 
46.20882 58.13190 -126.77002 1.85221 -3.21755 -11.56162 -24.41182 57.81353 10.60430 -0.05097 0.03315 0.00961 -19.05428 -5.68789 14.84780 -6.64425 11.34001 0.94559 -96.16387 -55.86385 -71.37299 -32.93689 54.46706 -103.51994 4.21038 9.03573 -1.45450 7.31051 14.50281 6.96799 66.20189 -19.84264 67.54308 22.61530 47.99229 113.20165 -8.52612 12.45405 -1.14175 15.79659 -71.68210 8.68010 80.89826 66.09758 -71.02996 -9.46013 -0.03421 0.03891 -26.95501 -21.48938 -13.69950 -43.25011 -58.35925 -22.22161 -162.19733 71.64517 174.13814 55.16813 0.12536 0.07386 -53.26198 -53.05831 -7.22606 
46.15430 53.57550 -127.66886 2.09383 -2.89101 -9.16301 -33.07033 61.29040 19.41954 -0.05669 0.01986 0.00523 -16.95893 -7.68818 12.17667 -2.57095 7.55305 -0.44733 -95.07410 -54.87481 -71.19744 -32.86415 54.21722 -104.93262 5.83304 8.39277 -1.70447 11.91387 10.44807 5.82433 66.15041 -19.62379 67.77998 23.57199 49.28378 114.02851 4.31286 1.91318 7.43443 22.36734 -79.31284 14.60372 96.83171 67.94756 -89.81393 -5.94843 -0.02250 0.02487 -30.03645 -21.74327 -14.54288 -47.75756 -61.80873 -20.56756 -174.45506 65.94232 186.70044 61.69537 0.13334 0.05044 -59.69994 -55.83754 -9.57429 
